<?xml version="1.0" ?><svg style="enable-background:new 0 0 64 64;" version="1.1" viewBox="0 0 64 64" xml:space="preserve" xmlns="http://www.w3.org/2000/svg" xmlns:xlink="http://www.w3.org/1999/xlink">
<g id="guidlines"/><g id="FB"/><g id="ig"/><g id="yt"/><g id="twitter"/><g id="snapchat"/><g id="WA"/><g id="Pinterrest"/><g id="Layer_9"/><g id="Layer_10"/><g id="Layer_11"><path fill="#fff" class="st14" d="M49.5,58.1c-3,2.4-6.8,3.9-11,3.9c-3.8,0-7.4-1.2-10.2-3.3c-4.4-3.2-7.2-8.3-7.2-14.1V26h-6l0-6.5   c0-0.6,0.3-1.1,0.9-1.3c0.6-0.3,1.2-0.7,1.8-1c1.2-0.7,2.2-1.6,3.2-2.5c3.1-3,5.2-6.9,5.9-11.3C26.9,2.5,27.5,2,28.2,2L36,2v15h12   v9H36v18.8c0,0.1,0,0.2,0,0.3s0,0.2,0,0.3c0.1,2.6,2.2,4.8,4.8,5c0.2,0,0.4,0,0.7,0c1.8,0,3.6-0.5,5-1.4l3,8.9L49.5,58.1z"/></g><g id="Layer_12"/><g id="Layer_13"/><g id="Layer_14"/><g id="Layer_15"/><g id="Layer_16"/><g id="Layer_17"/></svg>